<mxfile host="app.diagrams.net" modified="2024-04-10T20:28:00.439Z" agent="Mozilla/5.0 (Windows NT 10.0; Win64; x64) AppleWebKit/537.36 (KHTML, like Gecko) Chrome/123.0.0.0 Safari/537.36" etag="K_Q8dSb6TsbVOMXGZVgL" version="24.2.3" type="device">
  <diagram name="Page-1" id="rK-AMSusxKKNQ6RRBM9y">
    <mxGraphModel dx="1257" dy="620" grid="1" gridSize="10" guides="1" tooltips="1" connect="1" arrows="1" fold="1" page="1" pageScale="1" pageWidth="827" pageHeight="1169" math="0" shadow="0">
      <root>
        <mxCell id="0" />
        <mxCell id="1" parent="0" />
        <mxCell id="FojOhy-D1rllTsTGri5z-2" value="Student" style="shape=umlActor;verticalLabelPosition=bottom;verticalAlign=top;html=1;" parent="1" vertex="1">
          <mxGeometry x="70" y="490" width="30" height="60" as="geometry" />
        </mxCell>
        <mxCell id="FojOhy-D1rllTsTGri5z-4" value="frame" style="shape=umlFrame;whiteSpace=wrap;html=1;pointerEvents=0;" parent="1" vertex="1">
          <mxGeometry x="214" y="300" width="516" height="480" as="geometry" />
        </mxCell>
        <mxCell id="FojOhy-D1rllTsTGri5z-8" style="rounded=0;orthogonalLoop=1;jettySize=auto;html=1;exitX=1;exitY=0.5;exitDx=0;exitDy=0;entryX=0;entryY=0.5;entryDx=0;entryDy=0;endArrow=none;endFill=0;" parent="1" source="FojOhy-D1rllTsTGri5z-5" target="FojOhy-D1rllTsTGri5z-7" edge="1">
          <mxGeometry relative="1" as="geometry" />
        </mxCell>
        <mxCell id="FojOhy-D1rllTsTGri5z-5" value="Login" style="ellipse;whiteSpace=wrap;html=1;" parent="1" vertex="1">
          <mxGeometry x="294" y="365" width="140" height="70" as="geometry" />
        </mxCell>
        <mxCell id="FojOhy-D1rllTsTGri5z-6" style="rounded=0;orthogonalLoop=1;jettySize=auto;html=1;exitX=1;exitY=0.3333333333333333;exitDx=0;exitDy=0;exitPerimeter=0;entryX=0;entryY=0.5;entryDx=0;entryDy=0;endArrow=none;endFill=0;" parent="1" source="FojOhy-D1rllTsTGri5z-2" target="FojOhy-D1rllTsTGri5z-5" edge="1">
          <mxGeometry relative="1" as="geometry" />
        </mxCell>
        <mxCell id="FojOhy-D1rllTsTGri5z-7" value="Validation" style="ellipse;whiteSpace=wrap;html=1;" parent="1" vertex="1">
          <mxGeometry x="550" y="345" width="140" height="70" as="geometry" />
        </mxCell>
        <mxCell id="FojOhy-D1rllTsTGri5z-9" value="&amp;lt;&amp;lt;includes&amp;gt;&amp;gt;" style="text;html=1;align=center;verticalAlign=middle;resizable=0;points=[];autosize=1;strokeColor=none;fillColor=none;rotation=0;" parent="1" vertex="1">
          <mxGeometry x="440" y="360" width="100" height="30" as="geometry" />
        </mxCell>
        <mxCell id="jWC2T0mQsvkOoZAkQ9t0-1" value="Residence Application System" style="swimlane;whiteSpace=wrap;html=1;" parent="1" vertex="1">
          <mxGeometry x="300" y="1200" width="430" height="1450" as="geometry" />
        </mxCell>
        <mxCell id="jWC2T0mQsvkOoZAkQ9t0-2" value="Review Property Rating" style="ellipse;whiteSpace=wrap;html=1;" parent="jWC2T0mQsvkOoZAkQ9t0-1" vertex="1">
          <mxGeometry x="110" y="60" width="210" height="80" as="geometry" />
        </mxCell>
        <mxCell id="jWC2T0mQsvkOoZAkQ9t0-4" value="Add Student" style="ellipse;whiteSpace=wrap;html=1;" parent="jWC2T0mQsvkOoZAkQ9t0-1" vertex="1">
          <mxGeometry x="110" y="280" width="210" height="80" as="geometry" />
        </mxCell>
        <mxCell id="jWC2T0mQsvkOoZAkQ9t0-3" value="Delete Student" style="ellipse;whiteSpace=wrap;html=1;" parent="jWC2T0mQsvkOoZAkQ9t0-1" vertex="1">
          <mxGeometry x="110" y="170" width="210" height="80" as="geometry" />
        </mxCell>
        <mxCell id="jWC2T0mQsvkOoZAkQ9t0-9" value="Add Landlord" style="ellipse;whiteSpace=wrap;html=1;" parent="jWC2T0mQsvkOoZAkQ9t0-1" vertex="1">
          <mxGeometry x="114" y="390" width="210" height="80" as="geometry" />
        </mxCell>
        <mxCell id="jWC2T0mQsvkOoZAkQ9t0-10" value="Delete Landlord" style="ellipse;whiteSpace=wrap;html=1;" parent="jWC2T0mQsvkOoZAkQ9t0-1" vertex="1">
          <mxGeometry x="114" y="500" width="210" height="80" as="geometry" />
        </mxCell>
        <mxCell id="jWC2T0mQsvkOoZAkQ9t0-11" value="Add Property" style="ellipse;whiteSpace=wrap;html=1;" parent="jWC2T0mQsvkOoZAkQ9t0-1" vertex="1">
          <mxGeometry x="110" y="610" width="210" height="80" as="geometry" />
        </mxCell>
        <mxCell id="jWC2T0mQsvkOoZAkQ9t0-13" value="Delete Property" style="ellipse;whiteSpace=wrap;html=1;" parent="jWC2T0mQsvkOoZAkQ9t0-1" vertex="1">
          <mxGeometry x="110" y="720" width="210" height="80" as="geometry" />
        </mxCell>
        <mxCell id="jWC2T0mQsvkOoZAkQ9t0-14" value="" style="endArrow=none;html=1;rounded=0;" parent="jWC2T0mQsvkOoZAkQ9t0-1" edge="1">
          <mxGeometry width="50" height="50" relative="1" as="geometry">
            <mxPoint x="-120" y="250" as="sourcePoint" />
            <mxPoint x="114" y="110" as="targetPoint" />
          </mxGeometry>
        </mxCell>
        <mxCell id="jWC2T0mQsvkOoZAkQ9t0-20" value="" style="endArrow=none;html=1;rounded=0;" parent="jWC2T0mQsvkOoZAkQ9t0-1" edge="1">
          <mxGeometry width="50" height="50" relative="1" as="geometry">
            <mxPoint x="-120" y="250" as="sourcePoint" />
            <mxPoint x="110" y="205" as="targetPoint" />
          </mxGeometry>
        </mxCell>
        <mxCell id="jWC2T0mQsvkOoZAkQ9t0-18" value="" style="endArrow=none;html=1;rounded=0;" parent="jWC2T0mQsvkOoZAkQ9t0-1" target="jWC2T0mQsvkOoZAkQ9t0-4" edge="1">
          <mxGeometry width="50" height="50" relative="1" as="geometry">
            <mxPoint x="-120" y="250" as="sourcePoint" />
            <mxPoint x="90" y="270" as="targetPoint" />
          </mxGeometry>
        </mxCell>
        <mxCell id="jWC2T0mQsvkOoZAkQ9t0-17" value="" style="endArrow=none;html=1;rounded=0;exitX=0;exitY=0.375;exitDx=0;exitDy=0;exitPerimeter=0;" parent="jWC2T0mQsvkOoZAkQ9t0-1" source="jWC2T0mQsvkOoZAkQ9t0-11" edge="1">
          <mxGeometry width="50" height="50" relative="1" as="geometry">
            <mxPoint x="70" y="410" as="sourcePoint" />
            <mxPoint x="-120" y="250" as="targetPoint" />
          </mxGeometry>
        </mxCell>
        <mxCell id="jWC2T0mQsvkOoZAkQ9t0-16" value="" style="endArrow=none;html=1;rounded=0;entryX=0;entryY=0.5;entryDx=0;entryDy=0;" parent="jWC2T0mQsvkOoZAkQ9t0-1" target="jWC2T0mQsvkOoZAkQ9t0-9" edge="1">
          <mxGeometry width="50" height="50" relative="1" as="geometry">
            <mxPoint x="-120" y="250" as="sourcePoint" />
            <mxPoint x="70" y="240" as="targetPoint" />
          </mxGeometry>
        </mxCell>
        <mxCell id="jWC2T0mQsvkOoZAkQ9t0-19" value="" style="endArrow=none;html=1;rounded=0;" parent="jWC2T0mQsvkOoZAkQ9t0-1" edge="1">
          <mxGeometry width="50" height="50" relative="1" as="geometry">
            <mxPoint x="-120" y="249" as="sourcePoint" />
            <mxPoint x="114" y="750" as="targetPoint" />
          </mxGeometry>
        </mxCell>
        <mxCell id="jWC2T0mQsvkOoZAkQ9t0-15" value="" style="endArrow=none;html=1;rounded=0;entryX=0.014;entryY=0.363;entryDx=0;entryDy=0;entryPerimeter=0;" parent="jWC2T0mQsvkOoZAkQ9t0-1" target="jWC2T0mQsvkOoZAkQ9t0-10" edge="1">
          <mxGeometry width="50" height="50" relative="1" as="geometry">
            <mxPoint x="-120" y="250" as="sourcePoint" />
            <mxPoint x="80" y="380" as="targetPoint" />
          </mxGeometry>
        </mxCell>
        <mxCell id="nAZ5iC2q60SYBtR_N4RA-1" value="Request Audit" style="ellipse;whiteSpace=wrap;html=1;" vertex="1" parent="jWC2T0mQsvkOoZAkQ9t0-1">
          <mxGeometry x="110" y="840" width="210" height="80" as="geometry" />
        </mxCell>
        <mxCell id="nAZ5iC2q60SYBtR_N4RA-2" value="" style="endArrow=none;html=1;rounded=0;" edge="1" parent="jWC2T0mQsvkOoZAkQ9t0-1">
          <mxGeometry width="50" height="50" relative="1" as="geometry">
            <mxPoint x="-120" y="250" as="sourcePoint" />
            <mxPoint x="114" y="871" as="targetPoint" />
          </mxGeometry>
        </mxCell>
        <mxCell id="nAZ5iC2q60SYBtR_N4RA-3" value="Edit Student Details" style="ellipse;whiteSpace=wrap;html=1;" vertex="1" parent="jWC2T0mQsvkOoZAkQ9t0-1">
          <mxGeometry x="110" y="960" width="210" height="80" as="geometry" />
        </mxCell>
        <mxCell id="nAZ5iC2q60SYBtR_N4RA-4" value="Edit Landlord Details" style="ellipse;whiteSpace=wrap;html=1;" vertex="1" parent="jWC2T0mQsvkOoZAkQ9t0-1">
          <mxGeometry x="114" y="1070" width="210" height="80" as="geometry" />
        </mxCell>
        <mxCell id="nAZ5iC2q60SYBtR_N4RA-6" value="" style="endArrow=none;html=1;rounded=0;entryX=0.029;entryY=0.339;entryDx=0;entryDy=0;entryPerimeter=0;" edge="1" parent="jWC2T0mQsvkOoZAkQ9t0-1" target="nAZ5iC2q60SYBtR_N4RA-4">
          <mxGeometry width="50" height="50" relative="1" as="geometry">
            <mxPoint x="-120" y="250" as="sourcePoint" />
            <mxPoint x="84" y="951" as="targetPoint" />
          </mxGeometry>
        </mxCell>
        <mxCell id="nAZ5iC2q60SYBtR_N4RA-5" value="" style="endArrow=none;html=1;rounded=0;entryX=0.056;entryY=0.214;entryDx=0;entryDy=0;entryPerimeter=0;" edge="1" parent="jWC2T0mQsvkOoZAkQ9t0-1" target="nAZ5iC2q60SYBtR_N4RA-3">
          <mxGeometry width="50" height="50" relative="1" as="geometry">
            <mxPoint x="-120" y="250" as="sourcePoint" />
            <mxPoint x="104" y="901" as="targetPoint" />
          </mxGeometry>
        </mxCell>
        <mxCell id="jWC2T0mQsvkOoZAkQ9t0-12" value="Administrator" style="shape=umlActor;verticalLabelPosition=bottom;verticalAlign=top;html=1;outlineConnect=0;" parent="1" vertex="1">
          <mxGeometry x="50" y="1350" width="120" height="240" as="geometry" />
        </mxCell>
      </root>
    </mxGraphModel>
  </diagram>
</mxfile>
